<svg id="Layer_1" enable-background="new 0 0 72 72" height="512" viewBox="0 0 72 72" width="512" xmlns="http://www.w3.org/2000/svg"><g><path d="m63 41.37c-.21-3.63-1.95-9.7-3.89-11.76.68-1.02 1.59-3.2.16-6.51.91-1.75 1.64-5.01-.91-7.14.06-.85.02-2.67-1.13-3.97-.77-.86-1.86-1.32-3.25-1.37-.36-.97-1.48-2.63-5-3.34.17-.3.33-.61.49-.93.1-.2.11-.44.02-.65-.41-.94-3.38-.53-3.72-.48-.68.1-1.49.29-2.32.61-3.11-1.33-8.51-2.88-12.25.24-1.54 0-8.38.29-10.57 4.83-1.42.16-5.19 1.12-6.05 6.85-.06.07-.11.14-.14.22-.96.34-2.75 1.19-3.7 3.07-.88 1.73-.82 3.85.18 6.31-.66.81-2.04 2.8-1.93 5.19.07 1.6.79 3.06 2.13 4.35-.53 1.13-1.54 3.78-.5 5.71.57 1.07 1.63 1.73 3.15 1.98.08 1.28.49 4.06 2.51 6.25 1.5 1.62 3.57 2.56 6.16 2.83l-4.84 13.08c-.08.23-.05.49.09.69s.37.32.62.32h33.24c.28 0 .53-.15.66-.4.13-.24.12-.54-.04-.77l-5.18-7.81c2.93.17 8.86.15 10.37-2.6.68-1.23.41-2.76-.8-4.55.43-.23.85-.6.97-1.18.14-.69-.22-1.32-.76-1.86 1.08-.22 2.2-.67 2.5-1.54.25-.72-.07-1.48-.96-2.25-.25-.22-.44-.4-.59-.55.19.05.38.12.56.2l.11.05c.82.38 2.34 1.1 3.51.3.84-.57 1.2-1.69 1.1-3.42zm-10.36-29.96c.01.2.09.39.24.53s.35.21.54.2c1.23-.06 2.11.23 2.67.86 1.04 1.16.73 3.17.73 3.19-.05.28.07.57.3.73 2.19 1.56 1.45 4.05.95 5.18-.99.8-2.33 1.2-3.6 1.08-.63-.99-1.59-1.77-2.7-2.15-1.37-.46-2.94-.31-4.19.41-.36.21-.48.67-.28 1.02.21.36.66.48 1.02.28.89-.51 2-.62 2.96-.29.79.27 1.46.82 1.9 1.52v.01c.25 1.6.12 2.82-.41 3.74-.52.92-1.74 1.62-2.73 1.21-.22-.09-.48-.07-.68.05-.21.13-.34.34-.36.58-.07 1.01-.15 2.05-.56 2.92-.3.65-.96 1.42-1.82 1.46-.35.01-1.44-.12-2.02-.21-.04-.01-.07.01-.1.01-.07-.13-.17-.24-.31-.31-.88-.43-1.55-1.26-1.79-2.21s-.05-2 .52-2.8c.24-.34.16-.81-.18-1.05s-.81-.16-1.05.18c-.82 1.16-1.1 2.66-.75 4.04s1.32 2.56 2.58 3.19c.1.05.2.07.3.07.23.64 1.09 3.54-1.97 4.83-.09.04-.17.09-.24.16-.04.04-.07.09-.1.14-.02.03-.05.06-.06.1-.04.09-.06.19-.06.29 0 .85-.54 1.68-1.32 2.03-.77.34-1.76.18-2.39-.39-.4-.36-.68-.89-.98-1.44-.17-.31-.34-.62-.53-.92-.64-.99-1.88-2.03-3.28-1.66-.7.18-1.33.71-1.79 1.53-.11.19-.2.4-.29.61-.06-.25-.23-.46-.49-.54-.06-.02-.12-.03-.18-.04-3.43-.65-5.59.25-6.95 1.48.29-1.28.63-2.53 1-3.76.84.32 1.76.54 2.73.54 2.31 0 4.86-1.23 7.01-5.22.04-.08.08-.15.11-.2.06-.06.11-.13.14-.22.16-.37 0-.8-.36-.98-.04-.02-.08-.04-.12-.05-3.46-1.34-5.83-.73-7.4.35.56-1.27 1.17-2.51 1.83-3.73 1.09.67 2.39 1.19 3.84 1.19 2.02 0 4.31-1 6.68-3.96.06-.07.11-.13.14-.18.07-.05.13-.12.19-.2.22-.34.13-.8-.2-1.03-.02-.01-.04-.03-.06-.04-3.12-1.93-5.55-1.81-7.29-1.05.79-1.1 1.62-2.17 2.5-3.21 1.17 1.03 2.7 1.88 4.56 1.88 1.77 0 3.84-.75 6.2-2.79.07-.06.13-.12.18-.16.09-.04.17-.1.23-.17.28-.31.25-.78-.05-1.06-2.5-2.29-4.75-2.74-6.55-2.47.21-.19.41-.38.61-.57.16.01.32.02.48.02 3.28 0 6.18-1.83 8.51-5.33 4.31.7 4.54 2.7 4.54 2.78zm-28.51 21.5c-.31.81-.61 1.63-.89 2.46-1.27-.45-2.12-1.22-2.56-2.35-.86-2.21.04-5.26.6-6.62 2.15 1.88 3.1 4.06 2.85 6.51zm-3.27 12.84c-1.44-.17-2.48-.8-3.16-1.9-1.26-2.05-.92-5.26-.61-6.71 3.27 1.97 4.54 4.86 3.77 8.61zm1.51.15c.13-.88.58-2.6 1.91-3.78 1.18-1.04 2.8-1.45 4.84-1.21-1.36 3.89-3.59 5.54-6.76 5.04 0-.02 0-.03.01-.05zm2.53-9.96c.27-.82 1.02-2.44 2.54-3.36 1.35-.81 3.02-.91 4.99-.3-2.03 3.53-4.5 4.73-7.53 3.66zm7.37-12.13c1.47-.55 3.14-.35 4.97.61-2.62 3.1-5.26 3.83-8.05 2.21.4-.75 1.42-2.19 3.08-2.82zm-3.3-.32c-.48.74-.95 1.49-1.39 2.25-1.12-.67-1.8-1.56-2.03-2.74-.44-2.33.99-5.16 1.78-6.39 1.77 2.24 2.31 4.54 1.64 6.88zm3.19-9.44c-.01-2.39 1.93-4.93 2.95-6 1.49 2.86 1.42 5.53-.19 7.95-.38.4-.76.81-1.13 1.22-1.09-.87-1.63-1.91-1.63-3.17zm6.47 2c1.55-.28 3.15.22 4.77 1.49-3.16 2.58-5.9 2.83-8.35.73.55-.66 1.83-1.9 3.58-2.22zm8.84-9.45h.17c-.16.28-.33.56-.5.84-.01.01-.01.02-.02.03-1.62 2.56-4.02 4.95-7.38 5.01.39-2.01 1.35-3.53 2.86-4.53 1.69-1.12 3.68-1.35 4.87-1.35zm-32.22 37.35c.02-.4-.29-.75-.69-.78-1.34-.1-2.22-.53-2.62-1.26-.77-1.45.29-3.96.76-4.81.17-.31.1-.71-.17-.94-1.29-1.1-1.98-2.34-2.04-3.67-.11-2.24 1.53-4.13 1.79-4.41.35.04.71.07 1.07.07.55 0 1.11-.07 1.65-.27 1.11-.41 2.16-1.54 1.99-2.9-.05-.41-.43-.71-.83-.65-.41.05-.7.42-.65.83.07.56-.47 1.11-1.02 1.31-.67.25-1.48.19-2.26.09-.74-1.93-.79-3.56-.15-4.82.78-1.54 2.38-2.19 3.03-2.4.82.82 1.81 1.45 2.95 1.84.08.03.16.04.24.04.31 0 .6-.2.71-.51.13-.39-.08-.82-.47-.95-.96-.33-1.82-.89-2.49-1.6.77-5.62 4.57-5.78 5.01-5.78.25.05 1.69.43 1.92 1.92.06.37.38.63.74.63.04 0 .08 0 .12-.01.41-.07.69-.45.62-.86-.27-1.68-1.42-2.49-2.27-2.87 2.26-3.76 9.19-3.62 9.26-3.61.2 0 .38-.06.52-.19 2.73-2.47 6.83-1.68 9.71-.63-1.64 1.11-3.09 2.98-3.52 6.09-.22.2-.43.4-.64.6.38-2.21-.14-4.56-1.58-6.92-.03-.05-.07-.1-.11-.14-.2-.2-.53-.28-.8-.18-.62.21-3.91 3.57-4.34 7.06-.25 2.02.47 3.77 2.09 5.11-.73.86-1.43 1.73-2.09 2.63-.15-2.09-1.09-4.14-2.82-6.05-.03-.03-.06-.06-.1-.09-.23-.18-.57-.2-.83-.07-.68.35-3.13 4.19-2.98 7.58.09 2.04 1.08 3.64 2.88 4.7-.52.97-1.02 1.95-1.49 2.95-.54-1.99-1.83-3.81-3.85-5.36-.03-.02-.06-.04-.09-.06-.25-.14-.59-.12-.83.06-.6.44-2.32 4.59-1.6 7.94.45 2.07 1.75 3.52 3.8 4.23-.34 1.14-.66 2.29-.93 3.46-.86-2.02-2.52-3.7-4.94-4.93-.28-.11-.61-.03-.82.18-.5.5-1.46 4.95-.18 8.11.84 2.08 2.48 3.3 4.76 3.58-.16 1.46-.27 2.95-.34 4.46-1.18-.4-2.17-1.02-2.96-1.86-2.23-2.42-2.12-5.85-2.12-5.89zm6.57 8.11c.06-1.57.18-3.11.35-4.63.41.06.83.11 1.25.11 2.56 0 5.36-1.3 7.06-6.01-.21 1.5.15 3.09 1.06 4.29 1.1 1.45 2.93 2.28 4.75 2.24-.41.71-1.23 1.22-2.02 1.39-1.32.3-2.8-.03-4.1-.32-.29-.07-.58.04-.76.28-2.36 3.1-4.22 2.95-5.87 2.82-.01 0-.02 0-.03 0 0 0 0 0-.01 0-.59-.02-1.14-.08-1.68-.17zm39.25-8.52c-.46.31-1.57-.2-2.04-.42l-.11-.05c-.02-.01-2.25-1.03-2.98.09-.57.87.38 1.88 1.39 2.76.47.41.52.62.53.62-.15.29-1.53.7-3.02.76-.33.01-.61.24-.69.55-.09.32.04.65.32.83 1.53.98 1.59 1.45 1.6 1.45-.06.11-.45.31-.83.38-.26.04-.48.22-.58.47-.09.25-.05.53.12.74.9 1.13 1.85 2.69 1.28 3.73-1.08 1.96-6.98 2.09-10.45 1.71-.29-.03-.57.11-.72.35-.15.25-.15.56.02.8l5.26 7.94h-30.79l4.62-12.5c.21.01.41.03.63.03 1.59 0 3.53-.44 5.68-3.08 1.34.29 2.82.56 4.3.22 1.68-.38 3.41-1.79 3.45-3.73 0-.23-.1-.46-.28-.6-.18-.15-.42-.19-.65-.14-1.59.4-3.39-.23-4.38-1.53-.99-1.31-1.11-3.21-.3-4.63.18-.32.49-.73.87-.83.58-.15 1.26.43 1.65 1.03.17.26.32.54.46.81.34.64.7 1.3 1.29 1.84 1.07.97 2.68 1.24 4 .65 1.17-.52 2-1.65 2.17-2.91 2.64-1.32 2.97-3.75 2.66-5.5.44.05.9.08 1.18.07 1.26-.06 2.48-.98 3.11-2.32.39-.83.54-1.73.62-2.58 1.49.11 2.94-.85 3.64-2.08.58-1.02.81-2.26.7-3.77 1.08.04 2.2-.24 3.19-.76 1.38 3.46-.35 5.16-.43 5.23-.18.17-.27.41-.24.66s.19.46.41.57c1.27.64 3.52 6.68 3.78 11.06.08 1.55-.28 1.97-.44 2.08z"/><path d="m42.01 23.44c-.4.11-.63.52-.52.92s.52.63.92.52c.91-.25 1.98.02 2.65.67.68.65.99 1.71.77 2.63-.1.4.15.81.56.9.06.01.12.02.17.02.34 0 .65-.23.73-.58.34-1.44-.13-3.03-1.19-4.05s-2.67-1.43-4.09-1.03z"/><path d="m38.99 36.54c-1.04-.46-1.65-1.77-1.33-2.86.12-.4-.11-.81-.51-.93-.4-.11-.82.11-.93.51-.53 1.81.44 3.9 2.17 4.66.1.04.2.06.3.06.29 0 .56-.17.69-.45.16-.38-.01-.82-.39-.99z"/><path d="m51.86 18.23c.83.36 1.69.52 2.53.68.05.01.09.01.14.01.35 0 .67-.25.74-.61.08-.41-.19-.8-.6-.88-.75-.14-1.53-.29-2.21-.58s-1.2-.73-1.46-1.23c-.27-.51-.27-1.14.02-1.53.24-.33.17-.8-.16-1.05-.34-.25-.8-.17-1.05.16-.62.85-.67 2.1-.13 3.12.53 1.03 1.48 1.6 2.18 1.91z"/></g></svg>